<svg width="105" height="185" viewBox="0 0 105 185" fill="none" xmlns="http://www.w3.org/2000/svg">
<path d="M101.014 164.306C103.268 166.56 104.535 169.618 104.535 172.806C104.535 175.994 103.268 179.052 101.014 181.306C98.7596 183.56 95.702 184.827 92.5139 184.827C89.3258 184.827 86.2682 183.56 84.0139 181.306L4.01389 101.306C2.89517 100.191 2.00754 98.8665 1.40187 97.4079C0.796206 95.9492 0.484436 94.3854 0.484436 92.806C0.484436 91.2267 0.796206 89.6628 1.40187 88.2042C2.00754 86.7456 2.89517 85.4209 4.01389 84.306L84.0139 4.30603C86.2682 2.05169 89.3258 0.785217 92.5139 0.785217C95.702 0.785217 98.7596 2.05169 101.014 4.30603C103.268 6.56037 104.535 9.61791 104.535 12.806C104.535 15.9941 103.268 19.0517 101.014 21.306L29.5239 92.796L101.014 164.306Z" fill="#444444"/>
</svg>
