<svg width="105" height="185" viewBox="0 0 105 185" fill="none" xmlns="http://www.w3.org/2000/svg">
<path d="M100.917 101.306L20.9171 181.306C18.6627 183.56 15.6052 184.827 12.4171 184.827C9.22897 184.827 6.17142 183.56 3.91708 181.306C1.66274 179.052 0.396271 175.994 0.396271 172.806C0.396271 169.618 1.66274 166.56 3.91708 164.306L75.4271 92.816L3.93709 21.306C2.82085 20.1898 1.9354 18.8646 1.3313 17.4062C0.727196 15.9478 0.416267 14.3846 0.416267 12.806C0.416267 11.2274 0.727196 9.6643 1.3313 8.20586C1.9354 6.74743 2.82085 5.42227 3.93709 4.30603C5.05332 3.1898 6.37849 2.30435 7.83692 1.70025C9.29535 1.09615 10.8585 0.785217 12.4371 0.785217C14.0157 0.785217 15.5788 1.09615 17.0373 1.70025C18.4957 2.30435 19.8209 3.1898 20.9371 4.30603L100.937 84.306C102.054 85.4222 102.941 86.7479 103.545 88.2073C104.148 89.6666 104.458 91.2308 104.457 92.8102C104.455 94.3896 104.141 95.953 103.534 97.4109C102.926 98.8688 102.037 100.193 100.917 101.306Z" fill="#444444"/>
</svg>
