<svg width="21" height="21" viewBox="0 0 21 21" fill="none" xmlns="http://www.w3.org/2000/svg">
<path d="M12.2462 10.9504L20.5362 2.66044C20.7001 2.46914 20.7857 2.22306 20.776 1.97139C20.7662 1.71971 20.6619 1.48097 20.4838 1.30288C20.3057 1.12478 20.067 1.02045 19.8153 1.01073C19.5636 1.00101 19.3175 1.08662 19.1262 1.25044L10.8362 9.54044L2.54625 1.24044C2.35794 1.05214 2.10255 0.94635 1.83625 0.94635C1.56994 0.94635 1.31455 1.05214 1.12625 1.24044C0.937943 1.42875 0.832155 1.68414 0.832155 1.95044C0.832155 2.21674 0.937943 2.47214 1.12625 2.66044L9.42625 10.9504L1.12625 19.2404C1.02156 19.3301 0.936544 19.4404 0.876521 19.5645C0.816498 19.6885 0.782768 19.8237 0.777448 19.9614C0.772129 20.0991 0.795334 20.2364 0.845609 20.3648C0.895883 20.4931 0.972141 20.6096 1.0696 20.7071C1.16705 20.8045 1.2836 20.8808 1.41192 20.9311C1.54025 20.9814 1.67758 21.0046 1.8153 20.9992C1.95302 20.9939 2.08815 20.9602 2.21222 20.9002C2.33628 20.8401 2.4466 20.7551 2.53625 20.6504L10.8362 12.3604L19.1262 20.6504C19.3175 20.8143 19.5636 20.8999 19.8153 20.8902C20.067 20.8804 20.3057 20.7761 20.4838 20.598C20.6619 20.4199 20.7662 20.1812 20.776 19.9295C20.7857 19.6778 20.7001 19.4317 20.5362 19.2404L12.2462 10.9504Z" fill="white"/>
</svg>
